<?xml version="1.0" standalone="no"?>
<!DOCTYPE svg PUBLIC "-//W3C//DTD SVG 20010904//EN"
 "http://www.w3.org/TR/2001/REC-SVG-20010904/DTD/svg10.dtd">
<svg version="1.0" xmlns="http://www.w3.org/2000/svg"
 width="48.000000pt" height="48.000000pt" viewBox="0 0 48.000000 48.000000"
 preserveAspectRatio="xMidYMid meet">

<g transform="translate(0.000000,48.000000) scale(0.100000,-0.100000)"
fill="#000000" stroke="none">
<path d="M155 464 c-84 -31 -155 -132 -155 -222 0 -96 64 -187 156 -221 66
-25 84 -26 155 -5 73 22 131 80 153 153 21 71 20 89 -5 155 -46 123 -180 185
-304 140z m45 -68 c0 -3 -15 -28 -32 -57 -26 -41 -33 -63 -33 -103 0 -41 6
-60 33 -98 38 -55 38 -58 11 -58 -62 0 -129 83 -129 160 0 77 65 159 128 160
12 0 22 -2 22 -4z m141 -7 c51 -27 89 -91 89 -149 0 -77 -67 -160 -129 -160
-27 0 -27 3 12 58 26 38 32 57 32 98 0 40 -7 62 -32 103 -18 29 -33 54 -33 57
0 8 42 4 61 -7z m-119 -89 c7 -11 16 -20 20 -20 4 0 10 9 13 20 4 11 15 20 27
20 14 0 18 -5 14 -15 -3 -8 -9 -22 -12 -30 -3 -8 -1 -15 5 -15 22 0 11 -30
-11 -31 l-23 -2 23 -4 c25 -5 31 -33 7 -33 -9 0 -18 -7 -21 -15 -8 -19 -40
-19 -48 0 -3 8 -12 15 -21 15 -24 0 -17 30 8 31 l22 2 -22 4 c-23 4 -33 33
-12 33 6 0 8 7 5 15 -3 8 -9 22 -12 30 -9 23 24 19 38 -5z"/>
<path d="M115 347 c-37 -37 -51 -87 -41 -142 8 -39 46 -90 74 -97 16 -5 15 1
-9 46 -36 65 -36 107 0 174 33 60 24 67 -24 19z"/>
<path d="M341 328 c36 -67 36 -109 0 -174 -24 -45 -25 -51 -9 -46 28 7 66 58
74 97 10 55 -4 105 -41 142 -48 48 -57 41 -24 -19z"/>
</g>
</svg>
