<?xml version="1.0" encoding="UTF-8" standalone="no"?><!DOCTYPE svg PUBLIC "-//W3C//DTD SVG 1.1//EN" "http://www.w3.org/Graphics/SVG/1.1/DTD/svg11.dtd"><svg width="100%" height="100%" viewBox="0 0 100 100" version="1.1" xmlns="http://www.w3.org/2000/svg" xmlns:xlink="http://www.w3.org/1999/xlink" xml:space="preserve" style="fill-rule:evenodd;clip-rule:evenodd;stroke-linejoin:round;stroke-miterlimit:2;"><rect id="Artboard67" x="0" y="0" width="100" height="100" style="fill:none;"/><clipPath id="_clip1"><rect x="0" y="0" width="100" height="100"/></clipPath><g clip-path="url(#_clip1)"><g><path d="M50,100c27.708,0 50,-22.292 50,-50c0,-27.709 -22.292,-50 -50,-50c-27.709,0 -50,22.291 -50,50c0,27.708 22.291,50 50,50Z" style="fill:#ffcf00;fill-rule:nonzero;"/><g><path d="M64.841,44.61l-15.684,9.056c-0.807,0.465 -1.083,1.498 -0.618,2.304c0.466,0.806 1.498,1.083 2.304,0.617l15.685,-9.055c0.806,-0.466 1.082,-1.498 0.617,-2.304c-0.465,-0.806 -1.498,-1.083 -2.304,-0.618Z" style="fill:#08060b;"/><path d="M51.687,46.071c0,0.902 -0.709,1.639 -1.6,1.685l-0.087,0.002c-0.932,0 -1.687,-0.755 -1.687,-1.687l0,-11.392l3.374,0l0,11.392Z" style="fill:#08060b;"/><path d="M51.687,83.432c0,0.902 -0.709,1.639 -1.6,1.684l-0.087,0.003c-0.932,0 -1.687,-0.755 -1.687,-1.687l0,-28.306l3.374,0l0,28.306Z" style="fill:#08060b;"/><path d="M67.371,64.182l0,-18.111c0,-0.931 -0.756,-1.687 -1.687,-1.687c-0.931,0 -1.686,0.756 -1.686,1.687l0,18.111c0,0.931 0.755,1.686 1.686,1.686c0.931,0 1.687,-0.755 1.687,-1.686Z" style="fill:#08060b;"/><path d="M36.002,64.182l0,-18.111c0,-0.931 -0.755,-1.687 -1.686,-1.687c-0.931,0 -1.687,0.756 -1.687,1.687l0,18.111c0,0.931 0.756,1.686 1.687,1.686c0.931,0 1.686,-0.755 1.686,-1.686Z" style="fill:#08060b;"/><path d="M66.528,44.61l-7.843,-4.527c-0.806,-0.466 -1.838,-0.189 -2.304,0.617c-0.465,0.806 -0.188,1.839 0.618,2.304l7.842,4.528c0.806,0.465 1.839,0.189 2.304,-0.618c0.465,-0.806 0.189,-1.838 -0.617,-2.304Z" style="fill:#08060b;"/><path d="M41.315,40.083l-7.843,4.527c-0.806,0.466 -1.082,1.498 -0.617,2.304c0.465,0.807 1.498,1.083 2.304,0.618l7.842,-4.528c0.806,-0.465 1.083,-1.498 0.618,-2.304c-0.466,-0.806 -1.498,-1.083 -2.304,-0.617Z" style="fill:#08060b;"/><path d="M64.841,44.61l-15.684,9.056c-0.807,0.465 -1.083,1.498 -0.618,2.304c0.466,0.806 1.498,1.083 2.304,0.617l15.685,-9.055c0.806,-0.466 1.082,-1.498 0.617,-2.304c-0.465,-0.806 -1.498,-1.083 -2.304,-0.618Z" style="fill:#08060b;"/><path d="M33.472,47.532l15.685,9.055c0.806,0.466 1.838,0.189 2.304,-0.617c0.465,-0.806 0.189,-1.839 -0.618,-2.304l-15.684,-9.056c-0.806,-0.465 -1.839,-0.188 -2.304,0.618c-0.465,0.806 -0.189,1.838 0.617,2.304Z" style="fill:#08060b;"/><path d="M50.843,53.666l-15.684,-9.056c-0.806,-0.465 -1.839,-0.188 -2.304,0.618c-0.465,0.806 -0.189,1.838 0.617,2.304l15.685,9.055c0.806,0.466 1.838,0.189 2.304,-0.617c0.465,-0.806 0.189,-1.839 -0.618,-2.304Z" style="fill:#08060b;"/><path d="M51.308,84.497l15.684,-19.25c0.588,-0.722 0.479,-1.785 -0.242,-2.373c-0.722,-0.588 -1.785,-0.479 -2.373,0.242l-15.685,19.251c-0.588,0.721 -0.479,1.785 0.243,2.373c0.721,0.588 1.785,0.479 2.373,-0.243Z" style="fill:#08060b;"/><path d="M51.308,82.367l-15.685,-19.251c-0.588,-0.721 -1.651,-0.83 -2.373,-0.242c-0.721,0.588 -0.83,1.651 -0.242,2.373l15.684,19.25c0.588,0.722 1.652,0.831 2.373,0.243c0.722,-0.588 0.831,-1.652 0.243,-2.373Z" style="fill:#08060b;"/><path d="M50,44.124l14.841,-8.569c0.806,-0.465 1.839,-0.189 2.304,0.617c0.465,0.807 0.189,1.839 -0.617,2.304l-15.685,9.056c-0.522,0.301 -1.164,0.301 -1.686,0l-15.685,-9.056c-0.806,-0.465 -1.082,-1.497 -0.617,-2.304c0.465,-0.806 1.498,-1.082 2.304,-0.617l14.841,8.569Z" style="fill:#08060b;"/><path d="M33.456,24.173l0.016,-0.01l15.685,-9.056c0.522,-0.301 1.164,-0.301 1.686,0l15.685,9.056c0.522,0.301 0.843,0.858 0.843,1.46c0,0.603 -0.321,1.16 -0.843,1.461l-15.685,9.055c-0.522,0.302 -1.164,0.302 -1.686,0l-15.685,-9.055l-0.016,-0.01l-0.023,-0.013l-0.021,-0.014l-0.014,-0.008l-0.012,-0.009l-0.021,-0.014l-0.024,-0.016l-0.014,-0.01l-0.011,-0.008l-0.018,-0.013l-0.023,-0.019l-0.015,-0.011l-0.011,-0.009l-0.015,-0.013l-0.022,-0.019l-0.017,-0.014l-0.01,-0.009l-0.014,-0.012l-0.019,-0.019l-0.018,-0.017l-0.011,-0.011l-0.011,-0.011l-0.017,-0.018l-0.019,-0.019l-0.012,-0.014l-0.009,-0.01l-0.014,-0.017l-0.019,-0.021l-0.013,-0.016l-0.009,-0.011l-0.011,-0.015l-0.019,-0.023l-0.013,-0.018l-0.008,-0.011l-0.01,-0.014l-0.016,-0.024l-0.014,-0.021l-0.009,-0.012l-0.008,-0.014l-0.014,-0.021l-0.013,-0.023l-0.01,-0.016l-0.008,-0.015l-0.01,-0.017l-0.011,-0.021l-0.012,-0.024l-0.009,-0.017l-0.005,-0.01l-0.007,-0.015l-0.017,-0.035l-0.008,-0.021l-0.002,-0.003l-0.002,-0.006c-0.086,-0.201 -0.13,-0.412 -0.134,-0.621l-0.001,-0.003l0,-0.036l0,-0.036l0.001,-0.002c0.004,-0.21 0.048,-0.42 0.134,-0.621l0.002,-0.007l0.002,-0.003l0.008,-0.02l0.017,-0.035l0.007,-0.015l0.005,-0.01l0.009,-0.018l0.012,-0.024l0.011,-0.021l0.01,-0.016l0.008,-0.015l0.01,-0.017l0.013,-0.022l0.014,-0.021l0.008,-0.014l0.009,-0.013l0.014,-0.021l0.016,-0.023l0.01,-0.014l0.008,-0.011l0.013,-0.018l0.019,-0.024l0.011,-0.015l0.009,-0.01l0.013,-0.016l0.019,-0.022l0.014,-0.016l0.009,-0.011l0.012,-0.013l0.019,-0.019l0.017,-0.018l0.011,-0.011l0.011,-0.012l0.018,-0.016l0.019,-0.019l0.014,-0.012l0.01,-0.01l0.017,-0.014l0.022,-0.019l0.015,-0.012l0.011,-0.009l0.015,-0.012l0.023,-0.018l0.018,-0.013l0.011,-0.009l0.014,-0.009l0.024,-0.017l0.021,-0.013l0.012,-0.009l0.014,-0.009l0.021,-0.013l0.023,-0.013Zm4.233,1.45l12.311,7.108l12.311,-7.108l-12.311,-7.107l-12.311,7.107Z" style="fill:#08060b;"/><path d="M32.629,25.623l0,11.393c0,0.931 0.756,1.686 1.687,1.686c0.931,0 1.686,-0.755 1.686,-1.686l0,-11.393c0,-0.931 -0.755,-1.686 -1.686,-1.686c-0.931,0 -1.687,0.755 -1.687,1.686Z" style="fill:#08060b;"/><path d="M63.998,25.623l0,11.393c0,0.931 0.755,1.686 1.686,1.686c0.931,0 1.687,-0.755 1.687,-1.686l0,-11.393c0,-0.931 -0.756,-1.686 -1.687,-1.686c-0.931,0 -1.686,0.755 -1.686,1.686Z" style="fill:#08060b;"/></g></g></g></svg>