<?xml version="1.0" standalone="no"?>
<!DOCTYPE svg PUBLIC "-//W3C//DTD SVG 20010904//EN"
 "http://www.w3.org/TR/2001/REC-SVG-20010904/DTD/svg10.dtd">
<svg version="1.0" xmlns="http://www.w3.org/2000/svg"
 width="48.000000pt" height="53.000000pt" viewBox="0 0 48.000000 53.000000"
 preserveAspectRatio="xMidYMid meet">

<g transform="translate(0.000000,53.000000) scale(0.100000,-0.100000)"
fill="#000000" stroke="none">
<path d="M160 457 c-72 -24 -140 -120 -140 -199 0 -69 49 -147 113 -180 156
-81 343 62 299 230 -32 117 -159 187 -272 149z m140 -97 c23 -23 25 -42 9 -72
-15 -28 2 -43 32 -28 22 10 22 10 7 -3 -10 -8 -18 -28 -18 -46 0 -35 -30 -71
-60 -72 -104 -4 -105 -3 -108 24 -3 23 -8 27 -36 27 -18 0 -36 3 -39 6 -10 10
11 42 36 55 21 12 21 11 4 -8 -19 -21 -14 -33 15 -33 16 0 18 9 18 85 l0 85
60 0 c47 0 64 -4 80 -20z"/>
<path d="M210 325 c-17 -20 -5 -45 20 -45 11 0 23 7 26 15 6 15 -11 45 -26 45
-4 0 -13 -7 -20 -15z"/>
<path d="M207 233 c-14 -13 -6 -20 18 -15 14 2 25 8 25 13 0 10 -34 12 -43 2z"/>
<path d="M218 203 c-22 -6 -23 -19 -2 -27 25 -10 33 -7 44 14 11 21 0 24 -42
13z"/>
</g>
</svg>
