<?xml version="1.0" standalone="no"?>
<!DOCTYPE svg PUBLIC "-//W3C//DTD SVG 20010904//EN"
 "http://www.w3.org/TR/2001/REC-SVG-20010904/DTD/svg10.dtd">
<svg version="1.0" xmlns="http://www.w3.org/2000/svg"
 width="48.000000pt" height="51.000000pt" viewBox="0 0 48.000000 51.000000"
 preserveAspectRatio="xMidYMid meet">

<g transform="translate(0.000000,51.000000) scale(0.100000,-0.100000)"
fill="#000000" stroke="none">
<path d="M341 454 c-29 -8 -70 -22 -89 -31 -46 -22 -112 -87 -112 -110 0 -12
6 -8 19 13 32 53 98 91 203 118 28 7 47 15 42 18 -5 3 -33 -1 -63 -8z"/>
<path d="M343 419 c-35 -11 -63 -24 -63 -30 0 -6 7 -6 19 1 11 5 42 15 70 21
28 6 51 15 51 20 0 12 -4 11 -77 -12z"/>
<path d="M339 385 c-96 -35 -169 -93 -169 -133 0 -11 7 -5 20 15 22 36 104 88
168 105 23 7 42 16 42 20 0 11 -19 9 -61 -7z"/>
<path d="M245 378 c-28 -15 -85 -70 -85 -82 0 -5 16 7 36 27 21 20 45 39 55
42 11 4 19 11 19 16 0 11 0 11 -25 -3z"/>
<path d="M292 245 c-15 -32 -92 -82 -159 -101 -60 -17 -81 -37 -31 -28 85 15
208 97 208 140 0 20 -5 17 -18 -11z"/>
<path d="M313 223 c-11 -28 -54 -63 -118 -93 -33 -16 -52 -29 -42 -30 41 -1
157 82 170 123 8 22 -2 22 -10 0z"/>
<path d="M319 184 c-7 -14 -32 -39 -54 -54 -44 -30 -144 -70 -176 -70 -11 0
-17 -5 -14 -10 4 -6 10 -8 14 -6 4 3 22 8 39 11 84 14 212 100 212 142 0 19
-5 16 -21 -13z"/>
<path d="M73 93 c-24 -9 -13 -20 17 -15 17 2 30 8 30 13 0 10 -27 11 -47 2z"/>
</g>
</svg>
