<?xml version="1.0" encoding="UTF-8" standalone="no"?><!DOCTYPE svg PUBLIC "-//W3C//DTD SVG 1.1//EN" "http://www.w3.org/Graphics/SVG/1.1/DTD/svg11.dtd"><svg width="100%" height="100%" viewBox="0 0 100 100" version="1.1" xmlns="http://www.w3.org/2000/svg" xmlns:xlink="http://www.w3.org/1999/xlink" xml:space="preserve" style="fill-rule:evenodd;clip-rule:evenodd;stroke-linejoin:round;stroke-miterlimit:2;"><rect id="Artboard66" x="0" y="0" width="100" height="100" style="fill:none;"/><g><path d="M50,100c27.709,0 50,-22.291 50,-50c0,-27.709 -22.291,-50 -50,-50c-27.709,0 -50,22.292 -50,50c0,27.709 22.292,50 50,50Z" style="fill:#50af95;fill-rule:nonzero;"/><path d="M56.544,55.454c-0.365,0.028 -2.253,0.14 -6.465,0.14c-3.35,0 -5.728,-0.1 -6.563,-0.14c-12.945,-0.569 -22.608,-2.823 -22.608,-5.521c0,-2.698 9.663,-4.949 22.608,-5.527l0,8.804c0.847,0.061 3.271,0.204 6.621,0.204c4.02,0 6.033,-0.168 6.395,-0.201l0,-8.801c12.919,0.575 22.56,2.829 22.56,5.521c0,2.692 -9.638,4.946 -22.56,5.518l0.012,0.003Zm0,-11.953l0,-7.878l18.029,0l0,-12.014l-49.085,0l0,12.014l18.025,0l0,7.875c-14.651,0.673 -25.669,3.575 -25.669,7.053c0,3.478 11.018,6.377 25.669,7.053l0,25.246l13.028,0l0,-25.255c14.618,-0.673 25.618,-3.572 25.618,-7.047c0,-3.475 -10.991,-6.374 -25.618,-7.05l0.003,0.003Z" style="fill:#fff;"/></g></svg>